HIERARCHY
ROOT Hips
{
    OFFSET 0.000000 0.000000 0.000000
    CHANNELS 6 Xposition Yposition Zposition Zrotation Xrotation Yrotation
    JOINT Spine
    {
        OFFSET -0.000000 7.236184 0.000000
        CHANNELS 3 Zrotation Xrotation Yrotation
        JOINT Spine1
        {
            OFFSET -0.000000 20.420147 0.000000
            CHANNELS 3 Zrotation Xrotation Yrotation
            JOINT Neck
            {
                OFFSET -0.000000 20.336288 1.848754
                CHANNELS 3 Zrotation Xrotation Yrotation
                JOINT Head
                {
                    OFFSET -0.000000 12.354461 -1.764923
                    CHANNELS 3 Zrotation Xrotation Yrotation
                    End Site
                    {
                        OFFSET -0.000000 22.061537 0.000000
                    }
                }
            }
            JOINT LeftShoulder
            {
                OFFSET 3.573296 18.396038 -0.314103
                CHANNELS 3 Zrotation Xrotation Yrotation
                JOINT LeftArm
                {
                    OFFSET 10.880760 0.000000 0.000000
                    CHANNELS 3 Zrotation Xrotation Yrotation
                    JOINT LeftForeArm
                    {
                        OFFSET 27.185530 0.000000 0.000000
                        CHANNELS 3 Zrotation Xrotation Yrotation
                        JOINT LeftHand
                        {
                            OFFSET 27.825975 0.000000 0.000000
                            CHANNELS 3 Zrotation Xrotation Yrotation
                            End Site
                            {
                                OFFSET 13.236923 0.000000 0.000000
                            }
                        }
                    }
                }
            }
            JOINT RightShoulder
            {
                OFFSET -3.474926 18.396038 -0.314103
                CHANNELS 3 Zrotation Xrotation Yrotation
                JOINT RightArm
                {
                    OFFSET -10.880760 0.000000 0.000000
                    CHANNELS 3 Zrotation Xrotation Yrotation
                    JOINT RightForeArm
                    {
                        OFFSET -27.185530 0.000000 0.000000
                        CHANNELS 3 Zrotation Xrotation Yrotation
                        JOINT RightHand
                        {
                            OFFSET -27.825975 0.000000 0.000000
                            CHANNELS 3 Zrotation Xrotation Yrotation
                            End Site
                            {
                                OFFSET -13.236923 0.000000 0.000000
                            }
                        }
                    }
                }
            }
        }
    }
    JOINT LeftUpLeg
    {
        OFFSET 8.824615 0.000000 0.000000
        CHANNELS 3 Zrotation Xrotation Yrotation
        JOINT LeftLeg
        {
            OFFSET -0.000000 -35.111282 0.000000
            CHANNELS 3 Zrotation Xrotation Yrotation
            JOINT LeftFoot
            {
                OFFSET -0.000000 -42.324711 0.000000
                CHANNELS 3 Zrotation Xrotation Yrotation
                JOINT LeftToeBase
                {
                    OFFSET -0.000000 -5.735999 13.236923
                    CHANNELS 3 Zrotation Xrotation Yrotation
                    End Site
                    {
                        OFFSET -0.000000 0.000000 3.529846
                    }
                }
            }
        }
    }
    JOINT RightUpLeg
    {
        OFFSET -8.824615 0.000000 0.000000
        CHANNELS 3 Zrotation Xrotation Yrotation
        JOINT RightLeg
        {
            OFFSET -0.000000 -35.111282 0.000000
            CHANNELS 3 Zrotation Xrotation Yrotation
            JOINT RightFoot
            {
                OFFSET -0.000000 -42.324711 0.000000
                CHANNELS 3 Zrotation Xrotation Yrotation
                JOINT RightToeBase
                {
                    OFFSET -0.000000 -5.735999 13.236923
                    CHANNELS 3 Zrotation Xrotation Yrotation
                    End Site
                    {
                        OFFSET -0.000000 0.000000 3.529846
                    }
                }
            }
        }
    }
}
MOTION
Frames:    10
Frame Time:    0.008333
-4.480688    80.017075    104.288010    -0.400507    -7.160113    -179.036987    -1.380307    -9.836050    0.627930    -1.125436    7.031156    0.815929    3.680109    10.886015    -0.984797    4.505680    1.011459    -0.605096    -2.454601    17.798075    -2.205379    -50.034630    28.594757    -38.258526    24.662050    -24.314283    -60.450977    24.598169    -10.623611    -1.286846    7.659807    17.219397    -5.965032    46.331005    33.782547    35.740112    -28.618988    -25.796221    63.302177    -22.393749    -8.869035    1.816119    3.640790    -22.114891    0.366206    1.720714    32.322922    -0.062267    -7.258772    -14.487638    -11.825551    0.369702    -1.581231    -0.410987    -5.389610    -18.151016    -0.815696    1.323722    27.071218    9.046586    -1.911793    -11.984890    -13.299033    -2.555523    -1.223265    2.768606    
-4.457146    79.983658    104.305496    -0.396296    -7.121902    -179.081970    -1.393833    -9.805654    0.630409    -1.109732    7.169437    0.819543    3.659883    10.817932    -0.974309    4.506289    0.978394    -0.594028    -2.460939    17.771034    -2.319496    -49.746975    28.575741    -38.499710    24.748690    -24.022919    -59.566906    24.919312    -10.563876    -1.493566    7.760890    17.326065    -5.890161    46.000561    33.964161    36.139080    -28.680223    -25.751381    62.919067    -22.056017    -8.943004    1.986152    3.673395    -22.173319    0.451808    1.765242    32.485504    -0.092206    -7.257495    -14.551034    -11.850809    0.382531    -1.568364    -0.425239    -5.359543    -18.249023    -0.927214    1.253456    27.281378    9.193981    -1.909782    -12.041794    -13.286454    -2.573947    -1.211260    2.788518    
-4.431106    79.952965    104.323288    -0.395158    -7.090074    -179.129868    -1.414769    -9.774748    0.628085    -1.086092    7.311135    0.818540    3.633991    10.738469    -0.961116    4.501379    0.959054    -0.581559    -2.437588    17.709747    -2.419838    -49.467171    28.361525    -38.614185    24.694241    -23.622328    -58.705441    25.249001    -10.466063    -1.705854    7.850923    17.427019    -5.836618    45.677059    33.980278    36.430759    -28.658648    -25.595160    62.570965    -21.696310    -8.940495    2.183647    3.706707    -22.227669    0.547644    1.812459    32.629211    -0.126577    -7.251239    -14.607039    -11.876369    0.396522    -1.551373    -0.440778    -5.330372    -18.343338    -1.028419    1.187142    27.470587    9.327591    -1.925177    -12.086542    -13.274189    -2.595107    -1.193506    2.811372    
-4.406460    79.930901    104.338524    -0.397002    -7.072466    -179.172852    -1.439785    -9.749211    0.620302    -1.057223    7.432824    0.811754    3.604772    10.657806    -0.947012    4.492870    0.959728    -0.569223    -2.385709    17.620190    -2.484920    -49.248093    27.961029    -38.560253    24.500957    -23.174604    -58.010891    25.533056    -10.342387    -1.888077    7.911650    17.503052    -5.815609    45.426567    33.805260    36.542530    -28.548517    -25.347260    62.316227    -21.379473    -8.859745    2.370349    3.735647    -22.269844    0.637997    1.854602    32.727024    -0.159287    -7.243379    -14.644306    -11.898726    0.407610    -1.535593    -0.453091    -5.306654    -18.419064    -1.103979    1.136021    27.603973    9.426137    -1.926817    -12.113705    -13.256779    -2.613290    -1.178701    2.831010    
-4.382153    79.916405    104.352097    -0.400230    -7.069283    -179.212128    -1.467299    -9.728743    0.606743    -1.023028    7.539917    0.799070    3.570549    10.572926    -0.931690    4.482146    0.978066    -0.556399    -2.306888    17.501041    -2.516428    -49.075283    27.378473    -38.348206    24.190437    -22.677572    -57.438889    25.785851    -10.191200    -2.048885    7.945387    17.556555    -5.822752    45.242184    33.449230    36.485241    -28.356770    -25.019064    62.131489    -21.094883    -8.716690    2.544464    3.762646    -22.304260    0.723797    1.892295    32.785789    -0.189538    -7.238089    -14.664558    -11.919655    0.413859    -1.525486    -0.460027    -5.286135    -18.482084    -1.163810    1.095721    27.690359    9.501504    -1.926955    -12.124022    -13.236143    -2.627941    -1.165556    2.846828    
-4.358344    79.909935    104.364029    -0.403073    -7.082680    -179.246643    -1.494398    -9.714289    0.587507    -0.984203    7.630632    0.780105    3.530215    10.485065    -0.915520    4.470849    1.011921    -0.543114    -2.202787    17.352242    -2.510563    -48.940517    26.622261    -37.982056    23.783659    -22.142807    -56.984615    26.006680    -10.013633    -2.187386    7.948668    17.583643    -5.856218    45.129776    32.913887    36.252338    -28.087683    -24.625366    62.011471    -20.844944    -8.525669    2.696845    3.788867    -22.332525    0.801769    1.924059    32.804214    -0.214588    -7.240194    -14.666249    -11.940342    0.412424    -1.526348    -0.458434    -5.267694    -18.533522    -1.211810    1.065303    27.728397    9.558291    -1.921381    -12.117732    -13.211761    -2.637265    -1.156326    2.856892    
-4.335474    79.911789    104.374222    -0.404165    -7.113522    -179.275360    -1.518548    -9.706218    0.563235    -0.941624    7.702265    0.755662    3.483310    10.397722    -0.899504    4.460930    1.057313    -0.529805    -2.076971    17.176485    -2.465762    -48.831219    25.714230    -37.478542    23.306446    -21.585371    -56.643425    26.193365    -9.812746    -2.303703    7.919256    17.582083    -5.913731    45.088448    32.211674    35.850048    -27.750996    -24.186264    61.950096    -20.630234    -8.303976    2.820064    3.814934    -22.355654    0.869556    1.948897    32.782566    -0.233824    -7.252406    -14.649166    -11.960539    0.401470    -1.541449    -0.446270    -5.250553    -18.573353    -1.248808    1.044881    27.717093    9.598910    -1.912914    -12.094578    -13.186156    -2.640673    -1.150982    2.860561    
-4.313596    79.922012    104.382538    -0.403405    -7.161473    -179.298889    -1.539077    -9.703497    0.535452    -0.895793    7.753443    0.726843    3.430839    10.314240    -0.884582    4.452316    1.109354    -0.517153    -1.929565    16.974401    -2.383183    -48.729729    24.668442    -36.852386    22.777376    -21.010811    -56.401157    26.347982    -9.589558    -2.400290    7.856241    17.550938    -5.993317    45.109428    31.348392    35.286472    -27.353632    -23.713846    61.939152    -20.444952    -8.063728    2.913278    3.841026    -22.373560    0.928826    1.967612    32.721672    -0.249156    -7.275344    -14.613996    -11.979877    0.380421    -1.573567    -0.422898    -5.234406    -18.601400    -1.273775    1.034652    27.657051    9.625652    -1.897860    -12.055776    -13.161186    -2.638637    -1.149881    2.858351    
-4.292781    79.940582    104.388809    -0.401752    -7.225275    -179.318619    -1.557739    -9.704343    0.505796    -0.844436    7.783099    0.695528    3.371350    10.237684    -0.872006    4.446598    1.163876    -0.505967    -1.762488    16.746534    -2.265981    -48.612762    23.504774    -36.119072    22.214672    -20.427280    -56.242554    26.471609    -9.347932    -2.478455    7.757699    17.489262    -6.093388    45.179268    30.330414    34.573280    -26.902512    -23.216440    61.971245    -20.283564    -7.813452    2.979259    3.866478    -22.385143    0.981494    1.980877    32.622402    -0.261650    -7.307831    -14.561690    -11.997796    0.349368    -1.622254    -0.388413    -5.219687    -18.617090    -1.284617    1.034643    27.549412    9.640215    -1.884303    -12.001236    -13.141537    -2.632828    -1.150184    2.852062    
-4.273031    79.967354    104.392982    -0.400600    -7.304284    -179.335999    -1.575735    -9.706963    0.475925    -0.788011    7.789792    0.663499    3.306726    10.171471    -0.862646    4.443032    1.216654    -0.497168    -1.573047    16.492582    -2.118487    -48.455467    22.242241    -35.289299    21.634315    -19.842644    -56.151173    26.565033    -9.092725    -2.537966    7.623472    17.394791    -6.212210    45.280094    29.160942    33.718979    -26.403509    -22.697674    62.039688    -20.142342    -7.557098    3.022742    3.890333    -22.389717    1.027607    1.987905    32.485165    -0.269845    -7.347313    -14.493159    -12.013477    0.309387    -1.685898    -0.344004    -5.207324    -18.620808    -1.278701    1.045322    27.395893    9.643238    -1.863855    -11.933096    -13.128095    -2.624824    -1.151804    2.843397    
